<svg width="104" height="38" viewBox="0 0 104 38" fill="none" xmlns="http://www.w3.org/2000/svg">
<path d="M40.176 3.736L34.608 37H24.384L20.256 11.608L15.888 37H5.904L0.432 3.736H8.304L11.616 31.048L16.224 3.736H24.48L28.8 31.048L32.688 3.736H40.176ZM54.1879 10.696C58.0919 10.696 61.1479 11.896 63.3559 14.296C65.5639 16.664 66.6679 19.992 66.6679 24.28C66.6679 27 66.1559 29.384 65.1319 31.432C64.1399 33.448 62.6999 35.016 60.8119 36.136C58.9559 37.256 56.7479 37.816 54.1879 37.816C50.3159 37.816 47.2599 36.632 45.0199 34.264C42.8119 31.864 41.7079 28.52 41.7079 24.232C41.7079 21.512 42.2039 19.144 43.1959 17.128C44.2199 15.08 45.6599 13.496 47.5159 12.376C49.4039 11.256 51.6279 10.696 54.1879 10.696ZM54.1879 16.264C52.6519 16.264 51.4999 16.92 50.7319 18.232C49.9639 19.512 49.5799 21.512 49.5799 24.232C49.5799 27.016 49.9479 29.048 50.6839 30.328C51.4519 31.608 52.6199 32.248 54.1879 32.248C55.7239 32.248 56.8759 31.608 57.6439 30.328C58.4119 29.016 58.7959 27 58.7959 24.28C58.7959 21.496 58.4119 19.464 57.6439 18.184C56.9079 16.904 55.7559 16.264 54.1879 16.264ZM77.9471 37.816C75.7391 37.816 74.0111 37.192 72.7631 35.944C71.5471 34.664 70.9391 32.856 70.9391 30.52V1.384L78.5231 0.567997V30.232C78.5231 31.288 78.9551 31.816 79.8191 31.816C80.2671 31.816 80.6831 31.736 81.0671 31.576L82.5551 36.952C81.1791 37.528 79.6431 37.816 77.9471 37.816ZM97.0931 6.184C96.0051 6.184 95.2211 6.44 94.7411 6.952C94.2611 7.464 94.0211 8.328 94.0211 9.544V11.512H100.021L99.2051 16.792H94.0211V37H86.4371V16.792H82.5971V11.512H86.4371V9.256C86.4371 6.696 87.2691 4.616 88.9331 3.016C90.6291 1.384 93.0451 0.567997 96.1811 0.567997C98.7091 0.567997 101.029 1.112 103.141 2.2L101.077 7.144C99.7971 6.504 98.4691 6.184 97.0931 6.184Z" fill="black"/>
</svg>
